# xmcd
#
# Track frame offsets: 
#        150
#        15527
#        32116
#        47992
#        70147
#        87373
#        102992
#        120907
#        139211
#        154664
#
# Disc length: 2357 seconds
#
# Revision: 0
# Processed by: cddbd v1.5.2PL0 Copyright (c) Steve Scherf et al.
# Submitted via: ExactAudioCopy v1.0b3
#
DISCID=7e09330a
DTITLE=Stacie Collins - Roll The Dice
DYEAR=2015
DGENRE=Country
TTITLE0=Lost And Found
TTITLE1=King Of Rock
TTITLE2=Gonna Fly
TTITLE3=It's Over
TTITLE4=Heart On My Sleeve
TTITLE5=Jani
TTITLE6=Can't Do Without You
TTITLE7=Keep Rollin'
TTITLE8=Later Than You Think
TTITLE9=Blood Moon
EXTD=
EXTT0=
EXTT1=
EXTT2=
EXTT3=
EXTT4=
EXTT5=
EXTT6=
EXTT7=
EXTT8=
EXTT9=
PLAYORDER=
